<svg width="16" height="14" viewBox="0 0 16 14" fill="none" xmlns="http://www.w3.org/2000/svg">
<path d="M14.5413 1.48311C13.6931 0.644273 12.5686 0.132293 11.3712 0.0396547C10.1737 -0.0529831 8.98209 0.279829 8.01163 0.977975C6.9935 0.23103 5.72624 -0.107671 4.46507 0.0300787C3.20389 0.167829 2.04247 0.771797 1.21468 1.72036C0.386899 2.66892 -0.0457584 3.89162 0.0038373 5.14223C0.053433 6.39284 0.581598 7.57846 1.48197 8.46035L6.45124 13.3697C6.86736 13.7736 7.42779 14 8.01163 14C8.59547 14 9.15591 13.7736 9.57203 13.3697L14.5413 8.46035C15.4756 7.53316 16 6.279 16 4.97173C16 3.66447 15.4756 2.41031 14.5413 1.48311Z" fill="#FF4545"/>
</svg>
