<?xml version="1.0" encoding="utf-8"?>
<!-- Generator: Adobe Illustrator 16.0.0, SVG Export Plug-In . SVG Version: 6.00 Build 0)  -->
<!DOCTYPE svg PUBLIC "-//W3C//DTD SVG 1.1//EN" "http://www.w3.org/Graphics/SVG/1.1/DTD/svg11.dtd">
<svg version="1.1" xmlns="http://www.w3.org/2000/svg" xmlns:xlink="http://www.w3.org/1999/xlink" x="0px" y="0px" width="90px"
	 height="90px" viewBox="0 0 150 150" enable-background="new 0 0 150 150" xml:space="preserve">
<g id="baaaahaaan">
</g>
<g id="Page_1">
</g>
<g id="Page_2">
</g>
<g id="Page_3">
</g>
<g id="Page_4">
</g>
<g id="Page_5">
</g>
<g id="Page_6">
</g>
<g id="Page_7">
	<g>
		<g>
			<g>
				<path fill="#FFFFFF" d="M54.088,133.949l-2.262-16.694l-7.688,16.742h-2.359l-7.685-16.736l-2.23,16.688h-8.093l4.384-28.989
					h7.975l6.827,15.774l6.871-15.774h7.975l4.343,28.989H54.088z"/>
				<path fill="#FFFFFF" d="M80.252,134.683c-9.319,0-15.969-6.368-15.969-15.228c0-8.859,6.65-15.227,15.969-15.227
					c9.295,0,15.921,6.343,15.921,15.227S89.547,134.682,80.252,134.683L80.252,134.683z M80.252,127.251
					c4.412,0,7.605-3.259,7.605-7.795s-3.193-7.796-7.605-7.796c-4.413,0-7.654,3.283-7.654,7.795S75.839,127.251,80.252,127.251
					L80.252,127.251z"/>
				<path fill="#FFFFFF" d="M98.843,124.589h8.239c0,2.07,1.598,3.079,3.418,3.079c1.673,0,3.271-0.89,3.271-2.474
					c0-1.818-2.257-2.346-5.016-3.015c-4.19-1.042-9.539-2.325-9.539-8.924c0-5.709,4.194-8.979,11.03-8.979
					c6.95,0,10.935,3.568,10.935,9.466h-8.009c0-1.833-1.366-2.693-3.021-2.693c-1.423,0-2.79,0.616-2.79,1.969
					c0,1.646,2.185,2.191,4.914,2.877c4.267,1.101,9.846,2.526,9.846,9.146c0,6.331-4.865,9.618-11.597,9.618
					C103.429,134.658,98.843,130.908,98.843,124.589z"/>
				<path fill="#FFFFFF" d="M125.637,126.793h7.472v7.156h-7.472V126.793z"/>
			</g>
			<g>
				<g>
					<path fill="#FFFFFF" d="M43.291,143.379v2.992h-1.711v-2.793c0-0.573-0.201-0.865-0.648-0.865c-0.518,0-0.84,0.367-0.84,1.005
						v2.653h-1.711v-6.763h1.711v2.121c0.366-0.294,0.831-0.474,1.326-0.474C42.558,141.255,43.291,142.091,43.291,143.379z"/>
					<path fill="#FFFFFF" d="M44.315,141.402h1.711v4.969h-1.711V141.402z M44.328,139.328h1.685v1.453h-1.685V139.328z"/>
					<path fill="#FFFFFF" d="M49.02,146.534c-1.354,0-2.177-0.715-2.193-1.792h1.647c0,0.363,0.253,0.531,0.578,0.531
						c0.25,0,0.487-0.128,0.487-0.385c0-0.287-0.376-0.368-0.854-0.447c-0.77-0.125-1.792-0.357-1.792-1.563
						c0-0.996,0.849-1.639,2.122-1.639c1.266,0,2.085,0.673,2.105,1.68h-1.603c0-0.317-0.213-0.465-0.523-0.465
						c-0.274,0-0.459,0.136-0.459,0.366c0,0.283,0.38,0.349,0.852,0.433c0.785,0.14,1.829,0.303,1.829,1.563
						C51.217,145.854,50.34,146.534,49.02,146.534L49.02,146.534z"/>
					<path fill="#FFFFFF" d="M55.322,144.872v1.499h-1.177c-1.099,0-1.767-0.672-1.767-1.776v-1.875h-0.91v-0.4l2.226-2.371h0.352
						v1.453h1.249v1.318H54.09v1.581c0,0.356,0.214,0.57,0.576,0.57H55.322z"/>
					<path fill="#FFFFFF" d="M55.787,143.887c0-1.54,1.166-2.647,2.786-2.647c1.615,0,2.786,1.107,2.786,2.647
						c0,1.535-1.171,2.647-2.786,2.647C56.952,146.534,55.787,145.422,55.787,143.887z M59.644,143.887
						c0-0.653-0.448-1.11-1.072-1.11s-1.071,0.453-1.071,1.109c0,0.657,0.447,1.11,1.071,1.11S59.644,144.544,59.644,143.887z"/>
					<path fill="#FFFFFF" d="M65.385,141.379v1.566H64.72c-0.606,0-0.86,0.266-0.86,0.9v2.526h-1.711v-4.969h1.146l0.267,0.552
						c0.351-0.405,0.777-0.575,1.369-0.575H65.385z"/>
					<path fill="#FFFFFF" d="M71.255,141.402l-2.083,4.748c-0.669,1.521-1.285,2.07-2.568,2.07h-0.586v-1.47h0.471
						c0.655,0,0.853-0.17,1.084-0.789l-2.053-4.558h1.86l1.055,2.737l0.982-2.737H71.255z"/>
					<path fill="#FFFFFF" d="M78.849,141.397v4.968h-1.323l-0.146-0.351c-0.407,0.33-0.922,0.52-1.499,0.52
						c-1.52,0-2.605-1.108-2.605-2.653c0-1.539,1.086-2.634,2.605-2.634c0.585,0,1.108,0.195,1.518,0.534l0.175-0.384
						L78.849,141.397z M77.221,143.885c0-0.645-0.471-1.129-1.112-1.129c-0.645,0-1.112,0.484-1.112,1.129
						c0,0.649,0.471,1.133,1.112,1.133S77.221,144.534,77.221,143.885z"/>
					<path fill="#FFFFFF" d="M85.437,143.887c0,1.548-1.086,2.652-2.605,2.652c-0.449,0-0.86-0.118-1.211-0.33v1.956h-1.692v-6.763
						h1.164l0.214,0.395c0.409-0.354,0.935-0.558,1.525-0.558C84.351,141.24,85.437,142.339,85.437,143.887z M83.715,143.887
						c0-0.653-0.471-1.137-1.112-1.137s-1.112,0.484-1.112,1.137s0.471,1.137,1.112,1.137
						C83.24,145.024,83.715,144.54,83.715,143.887z"/>
					<path fill="#FFFFFF" d="M91.731,143.887c0,1.548-1.086,2.652-2.605,2.652c-0.449,0-0.86-0.118-1.211-0.33v1.956h-1.692v-6.763
						h1.164l0.214,0.395c0.409-0.354,0.935-0.558,1.525-0.558C90.646,141.24,91.731,142.339,91.731,143.887z M90.009,143.887
						c0-0.653-0.471-1.137-1.112-1.137s-1.112,0.484-1.112,1.137s0.471,1.137,1.112,1.137
						C89.534,145.024,90.009,144.54,90.009,143.887z"/>
					<path fill="#FFFFFF" d="M97.807,141.397v4.968h-1.323l-0.146-0.351c-0.407,0.33-0.922,0.52-1.499,0.52
						c-1.52,0-2.605-1.108-2.605-2.653c0-1.539,1.086-2.634,2.605-2.634c0.585,0,1.108,0.195,1.518,0.534l0.175-0.384
						L97.807,141.397z M96.179,143.885c0-0.645-0.471-1.129-1.112-1.129c-0.645,0-1.112,0.484-1.112,1.129
						c0,0.649,0.471,1.133,1.112,1.133S96.179,144.534,96.179,143.885z"/>
					<path fill="#FFFFFF" d="M102.122,141.379v1.566h-0.665c-0.606,0-0.859,0.266-0.859,0.9v2.526h-1.711v-4.969h1.146l0.267,0.552
						c0.35-0.405,0.777-0.575,1.368-0.575H102.122z"/>
					<path fill="#FFFFFF" d="M107.771,144.293h-3.689c0.112,0.57,0.474,0.865,1.015,0.865c0.4,0,0.734-0.175,0.898-0.466h1.703
						c-0.35,1.134-1.354,1.843-2.601,1.843c-1.55,0-2.699-1.133-2.699-2.651c0-1.523,1.139-2.643,2.699-2.643
						c1.602,0,2.71,1.143,2.71,2.6C107.807,143.99,107.793,144.139,107.771,144.293z M104.112,143.345h2.009
						c-0.15-0.497-0.508-0.765-1.024-0.765C104.597,142.581,104.25,142.852,104.112,143.345z"/>
					<path fill="#FFFFFF" d="M108.585,139.608h1.711v6.763h-1.711V139.608z"/>
				</g>
			</g>
		</g>
		<g>
			<g>
				<polygon fill="#FFFFFF" points="146.292,41.124 146.292,93.993 77.875,93.993 77.875,61.26 118.952,61.26 118.952,71.326 
					91.557,71.326 91.557,81.395 132.608,81.395 132.608,41.124 				"/>
				<path fill="#FFFFFF" d="M45.551,41.124v10.067h12.89v30.204H44.758V61.258H3.709v32.735H72.12V41.124H45.551z M31.079,81.395
					H17.388V71.326h13.691V81.395z"/>
				<polygon fill="#FFFFFF" points="72.12,2.338 72.12,35.069 38.076,35.069 38.076,55.206 3.924,55.206 3.924,2.338 16.63,2.338 
					16.63,45.138 25.37,45.138 25.37,2.338 38.076,2.338 38.076,25.001 46.242,25.001 46.242,2.338 57.17,2.338 57.17,25.001 
					65.337,25.001 65.337,2.338 				"/>
				<path fill="#FFFFFF" d="M77.88,2.338v52.868h41.049V45.138h-27.37V14.936h13.682v20.133h41.051V2.338H77.88z M132.608,25.001
					h-13.679V14.936h13.679V25.001z"/>
			</g>
		</g>
	</g>
</g>
</svg>
